<?xml version="1.0" encoding="UTF-8"?>
<svg width="148px" height="138px" viewBox="0 0 148 138" version="1.1" xmlns="http://www.w3.org/2000/svg" xmlns:xlink="http://www.w3.org/1999/xlink">
    <!-- Generator: Sketch 52.1 (67048) - http://www.bohemiancoding.com/sketch -->
    <title>download</title>
    <desc>Created with Sketch.</desc>
    <g id="Page-1" stroke="none" stroke-width="1" fill="none" fill-rule="evenodd">
        <g id="download" transform="translate(0.953125, 0.250000)" fill="#333333">
            <path d="M71.8164063,97.8515625 C72.4414062,98.6523438 73.6523438,98.6523438 74.2773438,97.8515625 L96.1523438,70.1757812 C96.953125,69.1601562 96.2304688,67.65625 94.921875,67.65625 L80.4492188,67.65625 L80.4492188,1.5625 C80.4492188,0.703125 79.7460938,0 78.8867188,0 L67.1679688,0 C66.3085938,0 65.6054688,0.703125 65.6054688,1.5625 L65.6054688,67.6367188 L51.171875,67.6367188 C49.8632813,67.6367188 49.140625,69.140625 49.9414063,70.15625 L71.8164063,97.8515625 Z" id="Path"></path>
            <path d="M144.53125,91.015625 L132.8125,91.015625 C131.953125,91.015625 131.25,91.71875 131.25,92.578125 L131.25,122.65625 L14.84375,122.65625 L14.84375,92.578125 C14.84375,91.71875 14.140625,91.015625 13.28125,91.015625 L1.5625,91.015625 C0.703125,91.015625 0,91.71875 0,92.578125 L0,131.25 C0,134.707031 2.79296875,137.5 6.25,137.5 L139.84375,137.5 C143.300781,137.5 146.09375,134.707031 146.09375,131.25 L146.09375,92.578125 C146.09375,91.71875 145.390625,91.015625 144.53125,91.015625 Z" id="Path"></path>
        </g>
    </g>
</svg>