<?xml version="1.0" encoding="UTF-8"?>
<svg width="333px" height="374px" viewBox="0 0 333 374" version="1.1" xmlns="http://www.w3.org/2000/svg" xmlns:xlink="http://www.w3.org/1999/xlink">
    <!-- Generator: Sketch 50.2 (55047) - http://www.bohemiancoding.com/sketch -->
    <title>logo</title>
    <desc>Created with Sketch.</desc>
    <defs></defs>
    <g id="Page-1" stroke="none" stroke-width="1" fill="none" fill-rule="evenodd">
        <g id="logo" transform="translate(-34.000000, 0.000000)" fill="#FFFFFF">
            <path d="M153.461585,168 C138.128251,167.333333 128.794918,163 125.461585,155 C120.461585,143 124.461585,130 125.461585,122 C126.128251,116.666667 126.461585,106.666667 126.461585,92 C132.461585,94 137.794918,98.3333333 142.461585,105 C149.461585,115 161.461585,135 168.461585,145 C175.461585,155 190.461585,153 184.461585,140 C178.461585,127 171.461585,117 168.461585,109 C165.461585,101 165.461585,79 180.461585,50 C190.461585,30.6666667 199.794918,14 208.461585,0 C217.794918,24 222.461585,38.6666667 222.461585,44 C222.461585,52 219.461585,67 201.461585,84 C183.461585,101 177.461585,115 182.461585,124 C187.461585,133 194.461585,145 197.461585,159 C200.461585,173 196.461585,180 186.461585,174 C176.461585,168 168.461585,153 162.461585,145 C156.461585,137 145.461585,118 145.461585,140 C145.461585,154.666667 148.128251,164 153.461585,168 Z" id="Path"></path>
            <path d="M252.874523,194.028812 C237.54119,193.362146 228.207856,189.028812 224.874523,181.028812 C219.874523,169.028812 223.874523,156.028812 224.874523,148.028812 C225.54119,142.695479 225.874523,132.695479 225.874523,118.028812 C231.874523,120.028812 237.207856,124.362146 241.874523,131.028812 C248.874523,141.028812 260.874523,161.028812 267.874523,171.028812 C274.874523,181.028812 289.874523,179.028812 283.874523,166.028812 C277.874523,153.028812 270.874523,143.028812 267.874523,135.028812 C264.874523,127.028812 264.874523,105.028812 279.874523,76.0288125 C289.874523,56.6954791 299.207856,40.0288125 307.874523,26.0288125 C317.207856,50.0288125 321.874523,64.6954791 321.874523,70.0288125 C321.874523,78.0288125 318.874523,93.0288125 300.874523,110.028812 C282.874523,127.028812 276.874523,141.028812 281.874523,150.028812 C286.874523,159.028812 293.874523,171.028812 296.874523,185.028812 C299.874523,199.028812 295.874523,206.028812 285.874523,200.028812 C275.874523,194.028812 267.874523,179.028812 261.874523,171.028812 C255.874523,163.028812 244.874523,144.028812 244.874523,166.028812 C244.874523,180.695479 247.54119,190.028812 252.874523,194.028812 Z" id="Path-Copy" transform="translate(272.143731, 114.107446) rotate(60.000000) translate(-272.143731, -114.107446) "></path>
            <path d="M278.874523,293.028812 C263.54119,292.362146 254.207856,288.028812 250.874523,280.028812 C245.874523,268.028812 249.874523,255.028812 250.874523,247.028812 C251.54119,241.695479 251.874523,231.695479 251.874523,217.028812 C257.874523,219.028812 263.207856,223.362146 267.874523,230.028812 C274.874523,240.028812 286.874523,260.028812 293.874523,270.028812 C300.874523,280.028812 315.874523,278.028812 309.874523,265.028812 C303.874523,252.028812 296.874523,242.028812 293.874523,234.028812 C290.874523,226.028812 290.874523,204.028812 305.874523,175.028812 C315.874523,155.695479 325.207856,139.028812 333.874523,125.028812 C343.207856,149.028812 347.874523,163.695479 347.874523,169.028812 C347.874523,177.028812 344.874523,192.028812 326.874523,209.028812 C308.874523,226.028812 302.874523,240.028812 307.874523,249.028812 C312.874523,258.028812 319.874523,270.028812 322.874523,284.028812 C325.874523,298.028812 321.874523,305.028812 311.874523,299.028812 C301.874523,293.028812 293.874523,278.028812 287.874523,270.028812 C281.874523,262.028812 270.874523,243.028812 270.874523,265.028812 C270.874523,279.695479 273.54119,289.028812 278.874523,293.028812 Z" id="Path-Copy-2" transform="translate(298.143731, 213.107446) rotate(120.000000) translate(-298.143731, -213.107446) "></path>
            <path d="M206.461585,365 C191.128251,364.333333 181.794918,360 178.461585,352 C173.461585,340 177.461585,327 178.461585,319 C179.128251,313.666667 179.461585,303.666667 179.461585,289 C185.461585,291 190.794918,295.333333 195.461585,302 C202.461585,312 214.461585,332 221.461585,342 C228.461585,352 243.461585,350 237.461585,337 C231.461585,324 224.461585,314 221.461585,306 C218.461585,298 218.461585,276 233.461585,247 C243.461585,227.666667 252.794918,211 261.461585,197 C270.794918,221 275.461585,235.666667 275.461585,241 C275.461585,249 272.461585,264 254.461585,281 C236.461585,298 230.461585,312 235.461585,321 C240.461585,330 247.461585,342 250.461585,356 C253.461585,370 249.461585,377 239.461585,371 C229.461585,365 221.461585,350 215.461585,342 C209.461585,334 198.461585,315 198.461585,337 C198.461585,351.666667 201.128251,361 206.461585,365 Z" id="Path-Copy-3" transform="translate(225.730792, 285.078634) rotate(180.000000) translate(-225.730792, -285.078634) "></path>
            <path d="M108.874523,339.028812 C93.5411897,338.362146 84.2078564,334.028812 80.874523,326.028812 C75.874523,314.028812 79.874523,301.028812 80.874523,293.028812 C81.5411897,287.695479 81.874523,277.695479 81.874523,263.028812 C87.874523,265.028812 93.2078564,269.362146 97.874523,276.028812 C104.874523,286.028812 116.874523,306.028812 123.874523,316.028812 C130.874523,326.028812 145.874523,324.028812 139.874523,311.028812 C133.874523,298.028812 126.874523,288.028812 123.874523,280.028812 C120.874523,272.028812 120.874523,250.028812 135.874523,221.028812 C145.874523,201.695479 155.207856,185.028812 163.874523,171.028812 C173.207856,195.028812 177.874523,209.695479 177.874523,215.028812 C177.874523,223.028812 174.874523,238.028812 156.874523,255.028812 C138.874523,272.028812 132.874523,286.028812 137.874523,295.028812 C142.874523,304.028812 149.874523,316.028812 152.874523,330.028812 C155.874523,344.028812 151.874523,351.028812 141.874523,345.028812 C131.874523,339.028812 123.874523,324.028812 117.874523,316.028812 C111.874523,308.028812 100.874523,289.028812 100.874523,311.028812 C100.874523,325.695479 103.54119,335.028812 108.874523,339.028812 Z" id="Path-Copy-4" transform="translate(128.143731, 259.107446) rotate(240.000000) translate(-128.143731, -259.107446) "></path>
            <path d="M81.874523,240.028812 C66.5411897,239.362146 57.2078564,235.028812 53.874523,227.028812 C48.874523,215.028812 52.874523,202.028812 53.874523,194.028812 C54.5411897,188.695479 54.874523,178.695479 54.874523,164.028812 C60.874523,166.028812 66.2078564,170.362146 70.874523,177.028812 C77.874523,187.028812 89.874523,207.028812 96.874523,217.028812 C103.874523,227.028812 118.874523,225.028812 112.874523,212.028812 C106.874523,199.028812 99.874523,189.028812 96.874523,181.028812 C93.874523,173.028812 93.874523,151.028812 108.874523,122.028812 C118.874523,102.695479 128.207856,86.0288125 136.874523,72.0288125 C146.207856,96.0288125 150.874523,110.695479 150.874523,116.028812 C150.874523,124.028812 147.874523,139.028812 129.874523,156.028812 C111.874523,173.028812 105.874523,187.028812 110.874523,196.028812 C115.874523,205.028812 122.874523,217.028812 125.874523,231.028812 C128.874523,245.028812 124.874523,252.028812 114.874523,246.028812 C104.874523,240.028812 96.874523,225.028812 90.874523,217.028812 C84.874523,209.028812 73.874523,190.028812 73.874523,212.028812 C73.874523,226.695479 76.5411897,236.028812 81.874523,240.028812 Z" id="Path-Copy-5" transform="translate(101.143731, 160.107446) rotate(300.000000) translate(-101.143731, -160.107446) "></path>
        </g>
    </g>
</svg>